<?xml version="1.0" encoding="UTF-8" standalone="no"?>
<svg
   viewBox="0 0 512 512"
   version="1.1"
   id="svg5"
   sodipodi:docname="icon.svg"
   inkscape:version="1.4.2 (f4327f4, 2025-05-13)"
   xmlns:inkscape="http://www.inkscape.org/namespaces/inkscape"
   xmlns:sodipodi="http://sodipodi.sourceforge.net/DTD/sodipodi-0.dtd"
   xmlns="http://www.w3.org/2000/svg"
   xmlns:svg="http://www.w3.org/2000/svg">
  <sodipodi:namedview
     id="namedview5"
     pagecolor="#ffffff"
     bordercolor="#000000"
     borderopacity="0.25"
     inkscape:showpageshadow="2"
     inkscape:pageopacity="0.0"
     inkscape:pagecheckerboard="0"
     inkscape:deskcolor="#d1d1d1"
     inkscape:zoom="0.875"
     inkscape:cx="256"
     inkscape:cy="256"
     inkscape:window-width="1280"
     inkscape:window-height="650"
     inkscape:window-x="-6"
     inkscape:window-y="-6"
     inkscape:window-maximized="1"
     inkscape:current-layer="svg5" />
  <defs
     id="defs2">
    <linearGradient
       id="grad"
       x1="0%"
       y1="0%"
       x2="100%"
       y2="100%">
      <stop
         offset="0%"
         style="stop-color:#6366f1;stop-opacity:1"
         id="stop1" />
      <stop
         offset="100%"
         style="stop-color:#a855f7;stop-opacity:1"
         id="stop2" />
    </linearGradient>
  </defs>
  <rect
     width="512"
     height="512"
     rx="100"
     fill="url(#grad)"
     id="rect2" />
  <path
     d="M140 140 h232 a20 20 0 0 1 20 20 v200 a20 20 0 0 1 -20 20 h-232 a20 20 0 0 1 -20 -20 v-200 a20 20 0 0 1 20 -20"
     fill="white"
     fill-opacity="0.2"
     id="path2" />
  <circle
     cx="258.28571"
     cy="256.57144"
     r="172.40445"
     fill="#fbbf24"
     stroke="#ffffff"
     stroke-width="10.4118"
     id="circle4" />
  <path
     d="m 258.28572,170.3692 21.55055,64.65168 h 64.65168 l -51.72134,38.79099 21.55055,64.65168 -56.03144,-43.10112 -56.03146,43.10112 21.55056,-64.65168 -51.72133,-38.79099 h 64.65167 z"
     fill="#ffffff"
     id="path5"
     style="stroke-width:4.31011" />
</svg>
